<svg width="168" height="30" viewBox="0 0 168 30" fill="none" xmlns="http://www.w3.org/2000/svg">
<path d="M52.942 20.784C52.978 20.784 52.996 20.82 52.996 20.892C52.996 20.964 52.978 21 52.942 21C52.534 21 52.21 20.994 51.97 20.982L50.656 20.964L49.162 20.982C48.91 20.994 48.574 21 48.154 21C48.118 21 48.1 20.964 48.1 20.892C48.1 20.82 48.118 20.784 48.154 20.784C48.562 20.784 48.862 20.754 49.054 20.694C49.246 20.634 49.372 20.52 49.432 20.352C49.504 20.172 49.54 19.902 49.54 19.542V11.424C49.54 11.016 49.522 10.746 49.486 10.614C49.462 10.482 49.396 10.398 49.288 10.362C49.18 10.326 48.964 10.308 48.64 10.308H44.95C44.59 10.308 44.35 10.326 44.23 10.362C44.11 10.398 44.032 10.482 43.996 10.614C43.972 10.746 43.96 11.016 43.96 11.424V19.542C43.96 19.914 43.99 20.184 44.05 20.352C44.122 20.52 44.248 20.634 44.428 20.694C44.62 20.754 44.926 20.784 45.346 20.784C45.382 20.784 45.4 20.82 45.4 20.892C45.4 20.964 45.382 21 45.346 21C44.926 21 44.59 20.994 44.338 20.982L42.844 20.964L41.512 20.982C41.272 20.994 40.948 21 40.54 21C40.516 21 40.504 20.964 40.504 20.892C40.504 20.82 40.516 20.784 40.54 20.784C40.96 20.784 41.266 20.754 41.458 20.694C41.65 20.634 41.782 20.52 41.854 20.352C41.926 20.172 41.962 19.902 41.962 19.542V11.424C41.962 10.884 41.872 10.506 41.692 10.29C41.512 10.074 41.14 9.966 40.576 9.966C40.54 9.966 40.522 9.93 40.522 9.858C40.522 9.786 40.54 9.75 40.576 9.75C40.984 9.75 41.38 9.756 41.764 9.768C43.372 9.792 45.058 9.804 46.822 9.804C48.418 9.804 50.26 9.786 52.348 9.75H52.942C52.978 9.75 52.996 9.786 52.996 9.858C52.996 9.93 52.978 9.966 52.942 9.966C52.378 9.966 52 10.074 51.808 10.29C51.628 10.506 51.538 10.884 51.538 11.424V19.542C51.538 19.902 51.574 20.172 51.646 20.352C51.718 20.52 51.85 20.634 52.042 20.694C52.234 20.754 52.534 20.784 52.942 20.784ZM58.0896 21.234C57.5016 21.234 56.9856 21.168 56.5416 21.036V24.492C56.5416 24.852 56.5776 25.116 56.6496 25.284C56.7336 25.452 56.8836 25.566 57.0996 25.626C57.3276 25.698 57.6756 25.734 58.1436 25.734C58.1796 25.734 58.1976 25.77 58.1976 25.842C58.1976 25.914 58.1796 25.95 58.1436 25.95C57.6996 25.95 57.3516 25.944 57.0996 25.932L55.6776 25.914L54.6156 25.932C54.4356 25.944 54.1836 25.95 53.8596 25.95C53.8236 25.95 53.8056 25.914 53.8056 25.842C53.8056 25.77 53.8236 25.734 53.8596 25.734C54.1476 25.734 54.3576 25.698 54.4896 25.626C54.6336 25.566 54.7296 25.446 54.7776 25.266C54.8376 25.098 54.8676 24.84 54.8676 24.492V15.51C54.8676 15.006 54.7776 14.676 54.5976 14.52C54.4296 14.352 54.1236 14.268 53.6796 14.268C53.6556 14.268 53.6436 14.232 53.6436 14.16C53.6436 14.088 53.6556 14.052 53.6796 14.052H56.1456C56.3136 14.052 56.4216 14.082 56.4696 14.142C56.5176 14.202 56.5416 14.31 56.5416 14.466V14.988C57.4056 14.208 58.2936 13.818 59.2056 13.818C59.7096 13.818 60.1776 13.95 60.6096 14.214C61.0536 14.478 61.4076 14.862 61.6716 15.366C61.9356 15.87 62.0676 16.458 62.0676 17.13C62.0676 18.09 61.8696 18.882 61.4736 19.506C61.0776 20.118 60.5736 20.562 59.9616 20.838C59.3616 21.102 58.7376 21.234 58.0896 21.234ZM58.0176 14.826C57.4776 14.826 56.9856 15.018 56.5416 15.402V19.884C56.8056 20.184 57.0816 20.412 57.3696 20.568C57.6576 20.712 58.0116 20.784 58.4316 20.784C59.6436 20.784 60.2496 19.752 60.2496 17.688C60.2496 16.776 60.0336 16.074 59.6016 15.582C59.1816 15.078 58.6536 14.826 58.0176 14.826ZM66.889 21.234C66.145 21.234 65.491 21.066 64.927 20.73C64.375 20.382 63.949 19.92 63.649 19.344C63.349 18.756 63.199 18.12 63.199 17.436C63.199 16.656 63.397 15.996 63.793 15.456C64.189 14.904 64.693 14.496 65.305 14.232C65.917 13.956 66.547 13.818 67.195 13.818C67.939 13.818 68.587 13.992 69.139 14.34C69.691 14.688 70.111 15.15 70.399 15.726C70.699 16.29 70.849 16.896 70.849 17.544C70.849 18.264 70.669 18.906 70.309 19.47C69.949 20.022 69.463 20.454 68.851 20.766C68.251 21.078 67.597 21.234 66.889 21.234ZM67.429 20.856C67.897 20.856 68.251 20.628 68.491 20.172C68.743 19.704 68.869 19.038 68.869 18.174C68.869 17.334 68.761 16.614 68.545 16.014C68.329 15.414 68.047 14.964 67.699 14.664C67.351 14.352 66.979 14.196 66.583 14.196C65.623 14.196 65.143 15.054 65.143 16.77C65.143 17.574 65.245 18.288 65.449 18.912C65.653 19.524 65.929 20.004 66.277 20.352C66.625 20.688 67.009 20.856 67.429 20.856ZM80.0337 20.784C80.0697 20.784 80.0877 20.82 80.0877 20.892C80.0877 20.964 80.0697 21 80.0337 21H77.8917C77.7717 21 77.6637 20.97 77.5677 20.91C77.4717 20.85 77.3337 20.7 77.1537 20.46C76.9737 20.22 76.7217 19.824 76.3977 19.272C76.0857 18.756 75.8397 18.384 75.6597 18.156C75.4917 17.928 75.3177 17.772 75.1377 17.688C74.9697 17.592 74.7537 17.544 74.4897 17.544H74.4537V19.542C74.4537 19.902 74.4777 20.172 74.5257 20.352C74.5737 20.52 74.6637 20.634 74.7957 20.694C74.9397 20.754 75.1497 20.784 75.4257 20.784C75.4617 20.784 75.4797 20.82 75.4797 20.892C75.4797 20.964 75.4617 21 75.4257 21C75.0897 21 74.8317 20.994 74.6517 20.982L73.6437 20.964L72.5997 20.982C72.4077 20.994 72.1377 21 71.7897 21C71.7537 21 71.7357 20.964 71.7357 20.892C71.7357 20.82 71.7537 20.784 71.7897 20.784C72.0777 20.784 72.2877 20.754 72.4197 20.694C72.5637 20.634 72.6597 20.52 72.7077 20.352C72.7557 20.172 72.7797 19.902 72.7797 19.542V15.51C72.7797 15.15 72.7557 14.886 72.7077 14.718C72.6597 14.538 72.5697 14.418 72.4377 14.358C72.3057 14.298 72.0957 14.268 71.8077 14.268C71.7837 14.268 71.7717 14.232 71.7717 14.16C71.7717 14.088 71.7837 14.052 71.8077 14.052C72.1437 14.052 72.4017 14.058 72.5817 14.07L73.6437 14.088L74.7957 14.07C74.9997 14.058 75.2817 14.052 75.6417 14.052C75.6657 14.052 75.6777 14.088 75.6777 14.16C75.6777 14.232 75.6657 14.268 75.6417 14.268C75.2937 14.268 75.0357 14.298 74.8677 14.358C74.7117 14.418 74.6037 14.538 74.5437 14.718C74.4837 14.898 74.4537 15.174 74.4537 15.546V17.238L75.3177 17.202C75.5577 17.202 75.8277 16.878 76.1277 16.23C76.5837 15.306 76.9797 14.682 77.3157 14.358C77.6637 14.034 78.0357 13.872 78.4317 13.872C78.7797 13.872 79.0377 13.956 79.2057 14.124C79.3857 14.28 79.4757 14.49 79.4757 14.754C79.4757 15.03 79.3977 15.252 79.2417 15.42C79.0857 15.588 78.8577 15.672 78.5577 15.672C78.3777 15.672 78.1917 15.624 77.9997 15.528C77.8077 15.432 77.6337 15.384 77.4777 15.384C77.2857 15.384 77.1237 15.45 76.9917 15.582C76.8717 15.702 76.7097 15.966 76.5057 16.374C76.3377 16.722 76.1577 17.004 75.9657 17.22C76.3137 17.244 76.5957 17.316 76.8117 17.436C77.0277 17.544 77.2257 17.706 77.4057 17.922C77.5857 18.126 77.8257 18.456 78.1257 18.912C78.3417 19.272 78.4737 19.482 78.5217 19.542C78.7977 20.01 79.0257 20.334 79.2057 20.514C79.3977 20.682 79.6737 20.772 80.0337 20.784ZM84.5798 21.234C83.9918 21.234 83.4758 21.168 83.0318 21.036V24.492C83.0318 24.852 83.0678 25.116 83.1398 25.284C83.2238 25.452 83.3738 25.566 83.5898 25.626C83.8178 25.698 84.1658 25.734 84.6338 25.734C84.6698 25.734 84.6878 25.77 84.6878 25.842C84.6878 25.914 84.6698 25.95 84.6338 25.95C84.1898 25.95 83.8418 25.944 83.5898 25.932L82.1678 25.914L81.1058 25.932C80.9258 25.944 80.6738 25.95 80.3498 25.95C80.3138 25.95 80.2958 25.914 80.2958 25.842C80.2958 25.77 80.3138 25.734 80.3498 25.734C80.6378 25.734 80.8478 25.698 80.9798 25.626C81.1238 25.566 81.2198 25.446 81.2678 25.266C81.3278 25.098 81.3578 24.84 81.3578 24.492V15.51C81.3578 15.006 81.2678 14.676 81.0878 14.52C80.9198 14.352 80.6138 14.268 80.1698 14.268C80.1458 14.268 80.1338 14.232 80.1338 14.16C80.1338 14.088 80.1458 14.052 80.1698 14.052H82.6358C82.8038 14.052 82.9118 14.082 82.9598 14.142C83.0078 14.202 83.0318 14.31 83.0318 14.466V14.988C83.8958 14.208 84.7838 13.818 85.6958 13.818C86.1998 13.818 86.6678 13.95 87.0998 14.214C87.5438 14.478 87.8978 14.862 88.1618 15.366C88.4258 15.87 88.5578 16.458 88.5578 17.13C88.5578 18.09 88.3598 18.882 87.9638 19.506C87.5678 20.118 87.0638 20.562 86.4518 20.838C85.8518 21.102 85.2278 21.234 84.5798 21.234ZM84.5078 14.826C83.9678 14.826 83.4758 15.018 83.0318 15.402V19.884C83.2958 20.184 83.5718 20.412 83.8598 20.568C84.1478 20.712 84.5018 20.784 84.9218 20.784C86.1338 20.784 86.7398 19.752 86.7398 17.688C86.7398 16.776 86.5238 16.074 86.0918 15.582C85.6718 15.078 85.1438 14.826 84.5078 14.826ZM97.0513 14.052C97.0753 14.052 97.0873 14.088 97.0873 14.16C97.0873 14.232 97.0753 14.268 97.0513 14.268C96.6673 14.268 96.3373 14.43 96.0613 14.754C95.7853 15.078 95.5273 15.558 95.2873 16.194L92.5513 23.16C92.3353 23.712 92.1853 24.15 92.1013 24.474C92.0173 24.81 91.9393 25.158 91.8673 25.518C91.8433 25.71 91.8133 25.83 91.7773 25.878C91.7533 25.926 91.6753 25.95 91.5433 25.95H88.9513C88.9153 25.95 88.8973 25.914 88.8973 25.842C88.8973 25.77 88.9153 25.734 88.9513 25.734C89.4793 25.65 89.9233 25.524 90.2833 25.356C90.6433 25.188 90.9793 24.912 91.2913 24.528C91.6033 24.156 91.8973 23.634 92.1733 22.962L92.8753 21.306L90.0133 15.546C89.7493 15.03 89.5393 14.688 89.3833 14.52C89.2393 14.352 89.0593 14.268 88.8433 14.268C88.8073 14.268 88.7893 14.232 88.7893 14.16C88.7893 14.088 88.8073 14.052 88.8433 14.052C89.1793 14.052 89.4373 14.058 89.6173 14.07L90.3733 14.088L91.6153 14.07C91.8073 14.058 92.0653 14.052 92.3893 14.052C92.4253 14.052 92.4433 14.088 92.4433 14.16C92.4433 14.232 92.4253 14.268 92.3893 14.268C92.0773 14.268 91.8493 14.298 91.7053 14.358C91.5613 14.406 91.4893 14.49 91.4893 14.61C91.4893 14.706 91.5253 14.826 91.5973 14.97L93.7033 19.29L94.8013 16.176C94.9093 15.864 94.9633 15.582 94.9633 15.33C94.9633 14.994 94.8673 14.736 94.6753 14.556C94.4833 14.364 94.2073 14.268 93.8473 14.268C93.8233 14.268 93.8113 14.232 93.8113 14.16C93.8113 14.088 93.8233 14.052 93.8473 14.052C94.1713 14.052 94.4173 14.058 94.5853 14.07L95.6653 14.088L96.3853 14.07C96.5293 14.058 96.7513 14.052 97.0513 14.052ZM98.7749 21C98.7389 21 98.7209 20.964 98.7209 20.892C98.7209 20.82 98.7389 20.784 98.7749 20.784C99.0629 20.784 99.2729 20.754 99.4049 20.694C99.5489 20.634 99.6449 20.52 99.6929 20.352C99.7409 20.172 99.7649 19.902 99.7649 19.542V15.546C99.7649 15.126 99.7289 14.838 99.6569 14.682C99.5969 14.526 99.4709 14.448 99.2789 14.448C98.9309 14.448 98.5889 14.634 98.2529 15.006C97.9289 15.378 97.6949 15.84 97.5509 16.392C97.5389 16.416 97.4969 16.428 97.4249 16.428C97.3649 16.428 97.3349 16.416 97.3349 16.392L97.2989 15.222C97.2749 14.742 97.2629 14.4 97.2629 14.196C97.2629 14.124 97.2689 14.082 97.2809 14.07C97.2929 14.046 97.3349 14.034 97.4069 14.034C97.6589 14.034 97.8809 14.04 98.0729 14.052L100.557 14.07L103.095 14.052C103.299 14.04 103.533 14.034 103.797 14.034C103.881 14.034 103.929 14.046 103.941 14.07C103.953 14.082 103.959 14.124 103.959 14.196C103.899 15.396 103.869 16.128 103.869 16.392C103.869 16.416 103.833 16.428 103.761 16.428C103.701 16.428 103.665 16.416 103.653 16.392C103.509 15.84 103.269 15.378 102.933 15.006C102.609 14.634 102.273 14.448 101.925 14.448C101.733 14.448 101.601 14.526 101.529 14.682C101.469 14.838 101.439 15.126 101.439 15.546V19.542C101.439 19.902 101.463 20.172 101.511 20.352C101.559 20.52 101.649 20.634 101.781 20.694C101.925 20.754 102.135 20.784 102.411 20.784C102.447 20.784 102.465 20.82 102.465 20.892C102.465 20.964 102.447 21 102.411 21C102.075 21 101.817 20.994 101.637 20.982L100.629 20.964L99.5849 20.982C99.3929 20.994 99.1229 21 98.7749 21ZM113.298 20.784C113.322 20.784 113.334 20.82 113.334 20.892C113.334 20.964 113.322 21 113.298 21C112.95 21 112.68 20.994 112.488 20.982L111.498 20.964L110.436 20.982C110.244 20.994 109.98 21 109.644 21C109.62 21 109.608 20.964 109.608 20.892C109.608 20.82 109.62 20.784 109.644 20.784C109.932 20.784 110.142 20.754 110.274 20.694C110.418 20.634 110.514 20.52 110.562 20.352C110.61 20.172 110.634 19.902 110.634 19.542V15.942L106.26 21.072C106.224 21.12 106.146 21.144 106.026 21.144C105.966 21.144 105.906 21.132 105.846 21.108C105.786 21.096 105.756 21.084 105.756 21.072V15.51C105.756 15.15 105.732 14.886 105.684 14.718C105.636 14.538 105.546 14.418 105.414 14.358C105.282 14.298 105.072 14.268 104.784 14.268C104.76 14.268 104.748 14.232 104.748 14.16C104.748 14.088 104.76 14.052 104.784 14.052C105.06 14.052 105.27 14.058 105.414 14.07L106.566 14.088L108.024 14.07C108.132 14.058 108.264 14.052 108.42 14.052C108.456 14.052 108.474 14.088 108.474 14.16C108.474 14.232 108.456 14.268 108.42 14.268C108.132 14.268 107.916 14.298 107.772 14.358C107.64 14.418 107.55 14.538 107.502 14.718C107.454 14.886 107.43 15.15 107.43 15.51V19.146L111.822 13.998C111.858 13.938 111.936 13.908 112.056 13.908C112.128 13.908 112.188 13.92 112.236 13.944C112.296 13.956 112.326 13.974 112.326 13.998V19.542C112.326 19.902 112.35 20.172 112.398 20.352C112.446 20.52 112.536 20.634 112.668 20.694C112.8 20.754 113.01 20.784 113.298 20.784ZM115.65 21C115.614 21 115.596 20.964 115.596 20.892C115.596 20.82 115.614 20.784 115.65 20.784C115.938 20.784 116.148 20.754 116.28 20.694C116.424 20.634 116.52 20.52 116.568 20.352C116.616 20.172 116.64 19.902 116.64 19.542V15.546C116.64 15.126 116.604 14.838 116.532 14.682C116.472 14.526 116.346 14.448 116.154 14.448C115.806 14.448 115.464 14.634 115.128 15.006C114.804 15.378 114.57 15.84 114.426 16.392C114.414 16.416 114.372 16.428 114.3 16.428C114.24 16.428 114.21 16.416 114.21 16.392L114.174 15.222C114.15 14.742 114.138 14.4 114.138 14.196C114.138 14.124 114.144 14.082 114.156 14.07C114.168 14.046 114.21 14.034 114.282 14.034C114.534 14.034 114.756 14.04 114.948 14.052L117.432 14.07L119.97 14.052C120.174 14.04 120.408 14.034 120.672 14.034C120.756 14.034 120.804 14.046 120.816 14.07C120.828 14.082 120.834 14.124 120.834 14.196C120.774 15.396 120.744 16.128 120.744 16.392C120.744 16.416 120.708 16.428 120.636 16.428C120.576 16.428 120.54 16.416 120.528 16.392C120.384 15.84 120.144 15.378 119.808 15.006C119.484 14.634 119.148 14.448 118.8 14.448C118.608 14.448 118.476 14.526 118.404 14.682C118.344 14.838 118.314 15.126 118.314 15.546V19.542C118.314 19.902 118.338 20.172 118.386 20.352C118.434 20.52 118.524 20.634 118.656 20.694C118.8 20.754 119.01 20.784 119.286 20.784C119.322 20.784 119.34 20.82 119.34 20.892C119.34 20.964 119.322 21 119.286 21C118.95 21 118.692 20.994 118.512 20.982L117.504 20.964L116.46 20.982C116.268 20.994 115.998 21 115.65 21ZM128.265 19.812C128.289 19.812 128.313 19.836 128.337 19.884C128.373 19.932 128.379 19.968 128.355 19.992C127.911 20.424 127.461 20.736 127.005 20.928C126.549 21.12 126.051 21.216 125.511 21.216C124.755 21.216 124.101 21.06 123.549 20.748C122.997 20.424 122.577 19.998 122.289 19.47C122.001 18.93 121.857 18.348 121.857 17.724C121.857 17.028 122.031 16.386 122.379 15.798C122.727 15.21 123.207 14.748 123.819 14.412C124.443 14.064 125.145 13.89 125.925 13.89C126.669 13.89 127.245 14.058 127.653 14.394C128.061 14.73 128.265 15.252 128.265 15.96C128.265 16.332 128.199 16.518 128.067 16.518L123.693 16.536C123.681 16.62 123.675 16.758 123.675 16.95C123.675 18.006 123.915 18.834 124.395 19.434C124.887 20.034 125.589 20.334 126.501 20.334C126.825 20.334 127.101 20.298 127.329 20.226C127.557 20.154 127.857 20.022 128.229 19.83L128.265 19.812ZM125.241 14.25C124.845 14.25 124.515 14.424 124.251 14.772C123.987 15.108 123.813 15.576 123.729 16.176L126.339 16.14C126.327 15.528 126.237 15.06 126.069 14.736C125.901 14.412 125.625 14.25 125.241 14.25ZM138.459 17.148C139.959 17.28 140.709 17.832 140.709 18.804C140.709 19.452 140.427 19.986 139.863 20.406C139.299 20.826 138.567 21.036 137.667 21.036C137.523 21.036 137.199 21.024 136.695 21C136.119 20.976 135.705 20.964 135.453 20.964L134.409 20.982C134.217 20.994 133.947 21 133.599 21C133.563 21 133.545 20.964 133.545 20.892C133.545 20.82 133.563 20.784 133.599 20.784C133.887 20.784 134.097 20.754 134.229 20.694C134.373 20.634 134.469 20.52 134.517 20.352C134.565 20.172 134.589 19.902 134.589 19.542V15.51C134.589 15.15 134.565 14.886 134.517 14.718C134.469 14.538 134.373 14.418 134.229 14.358C134.097 14.298 133.893 14.268 133.617 14.268C133.581 14.268 133.563 14.232 133.563 14.16C133.563 14.088 133.581 14.052 133.617 14.052L135.453 14.07L136.389 14.052C136.845 14.028 137.181 14.016 137.397 14.016C139.101 14.016 139.953 14.472 139.953 15.384C139.953 15.696 139.827 15.996 139.575 16.284C139.335 16.572 138.963 16.86 138.459 17.148ZM136.965 14.376C136.677 14.376 136.485 14.448 136.389 14.592C136.305 14.736 136.263 15.054 136.263 15.546V17.13H137.793H137.955C138.075 16.77 138.135 16.362 138.135 15.906C138.135 15.354 138.039 14.964 137.847 14.736C137.667 14.496 137.373 14.376 136.965 14.376ZM137.361 20.658C137.877 20.658 138.255 20.538 138.495 20.298C138.735 20.046 138.855 19.674 138.855 19.182C138.855 18.654 138.717 18.24 138.441 17.94C138.177 17.628 137.751 17.472 137.163 17.472H136.263V19.542C136.263 19.938 136.335 20.226 136.479 20.406C136.635 20.574 136.929 20.658 137.361 20.658ZM150.269 20.784C150.293 20.784 150.305 20.82 150.305 20.892C150.305 20.964 150.293 21 150.269 21C149.933 21 149.675 20.994 149.495 20.982L148.487 20.964L147.425 20.982C147.233 20.994 146.969 21 146.633 21C146.597 21 146.579 20.964 146.579 20.892C146.579 20.82 146.597 20.784 146.633 20.784C146.921 20.784 147.131 20.754 147.263 20.694C147.407 20.634 147.503 20.52 147.551 20.352C147.599 20.172 147.623 19.902 147.623 19.542V17.742H144.455V19.542C144.455 19.902 144.479 20.172 144.527 20.352C144.575 20.52 144.665 20.634 144.797 20.694C144.929 20.754 145.139 20.784 145.427 20.784C145.451 20.784 145.463 20.82 145.463 20.892C145.463 20.964 145.451 21 145.427 21C145.091 21 144.833 20.994 144.653 20.982L143.645 20.964L142.601 20.982C142.409 20.994 142.139 21 141.791 21C141.755 21 141.737 20.964 141.737 20.892C141.737 20.82 141.755 20.784 141.791 20.784C142.079 20.784 142.289 20.754 142.421 20.694C142.565 20.634 142.661 20.52 142.709 20.352C142.757 20.172 142.781 19.902 142.781 19.542V15.51C142.781 15.15 142.757 14.886 142.709 14.718C142.661 14.538 142.565 14.418 142.421 14.358C142.289 14.298 142.085 14.268 141.809 14.268C141.773 14.268 141.755 14.232 141.755 14.16C141.755 14.088 141.773 14.052 141.809 14.052C142.145 14.052 142.403 14.058 142.583 14.07L143.645 14.088L144.653 14.07C144.845 14.058 145.103 14.052 145.427 14.052C145.451 14.052 145.463 14.088 145.463 14.16C145.463 14.232 145.451 14.268 145.427 14.268C145.151 14.268 144.941 14.304 144.797 14.376C144.665 14.448 144.575 14.574 144.527 14.754C144.479 14.922 144.455 15.186 144.455 15.546V17.31H147.623V15.51C147.623 15.15 147.599 14.886 147.551 14.718C147.503 14.538 147.407 14.418 147.263 14.358C147.131 14.298 146.927 14.268 146.651 14.268C146.615 14.268 146.597 14.232 146.597 14.16C146.597 14.088 146.615 14.052 146.651 14.052C146.987 14.052 147.245 14.058 147.425 14.07L148.487 14.088L149.495 14.07C149.687 14.058 149.945 14.052 150.269 14.052C150.293 14.052 150.305 14.088 150.305 14.16C150.305 14.232 150.293 14.268 150.269 14.268C149.993 14.268 149.783 14.304 149.639 14.376C149.507 14.448 149.417 14.574 149.369 14.754C149.321 14.922 149.297 15.186 149.297 15.546V19.542C149.297 19.902 149.321 20.172 149.369 20.352C149.417 20.52 149.507 20.634 149.639 20.694C149.771 20.754 149.981 20.784 150.269 20.784ZM159.74 20.784C159.764 20.784 159.776 20.82 159.776 20.892C159.776 20.964 159.764 21 159.74 21C159.392 21 159.122 20.994 158.93 20.982L157.94 20.964L156.878 20.982C156.686 20.994 156.422 21 156.086 21C156.062 21 156.05 20.964 156.05 20.892C156.05 20.82 156.062 20.784 156.086 20.784C156.374 20.784 156.584 20.754 156.716 20.694C156.86 20.634 156.956 20.52 157.004 20.352C157.052 20.172 157.076 19.902 157.076 19.542V15.942L152.702 21.072C152.666 21.12 152.588 21.144 152.468 21.144C152.408 21.144 152.348 21.132 152.288 21.108C152.228 21.096 152.198 21.084 152.198 21.072V15.51C152.198 15.15 152.174 14.886 152.126 14.718C152.078 14.538 151.988 14.418 151.856 14.358C151.724 14.298 151.514 14.268 151.226 14.268C151.202 14.268 151.19 14.232 151.19 14.16C151.19 14.088 151.202 14.052 151.226 14.052C151.502 14.052 151.712 14.058 151.856 14.07L153.008 14.088L154.466 14.07C154.574 14.058 154.706 14.052 154.862 14.052C154.898 14.052 154.916 14.088 154.916 14.16C154.916 14.232 154.898 14.268 154.862 14.268C154.574 14.268 154.358 14.298 154.214 14.358C154.082 14.418 153.992 14.538 153.944 14.718C153.896 14.886 153.872 15.15 153.872 15.51V19.146L158.264 13.998C158.3 13.938 158.378 13.908 158.498 13.908C158.57 13.908 158.63 13.92 158.678 13.944C158.738 13.956 158.768 13.974 158.768 13.998V19.542C158.768 19.902 158.792 20.172 158.84 20.352C158.888 20.52 158.978 20.634 159.11 20.694C159.242 20.754 159.452 20.784 159.74 20.784ZM164.233 17.112C164.989 17.16 165.577 17.37 165.997 17.742C166.429 18.102 166.645 18.576 166.645 19.164C166.645 19.824 166.351 20.334 165.763 20.694C165.175 21.042 164.407 21.216 163.459 21.216C162.487 21.216 161.743 21.078 161.227 20.802C161.143 20.766 161.089 20.73 161.065 20.694C161.041 20.658 161.023 20.592 161.011 20.496L160.867 18.786C160.867 18.75 160.897 18.726 160.957 18.714C161.017 18.702 161.059 18.72 161.083 18.768C161.335 19.404 161.665 19.908 162.073 20.28C162.481 20.652 162.955 20.838 163.495 20.838C163.891 20.838 164.191 20.7 164.395 20.424C164.599 20.136 164.701 19.74 164.701 19.236C164.701 18.612 164.539 18.138 164.215 17.814C163.903 17.478 163.387 17.31 162.667 17.31C162.619 17.31 162.589 17.28 162.577 17.22C162.565 17.148 162.595 17.112 162.667 17.112C163.315 17.112 163.771 16.992 164.035 16.752C164.311 16.512 164.449 16.134 164.449 15.618C164.449 15.186 164.359 14.844 164.179 14.592C163.999 14.328 163.747 14.196 163.423 14.196C163.027 14.196 162.655 14.37 162.307 14.718C161.971 15.054 161.641 15.522 161.317 16.122C161.305 16.134 161.275 16.14 161.227 16.14C161.131 16.14 161.089 16.116 161.101 16.068L161.497 13.674C161.497 13.65 161.521 13.638 161.569 13.638C161.605 13.638 161.641 13.65 161.677 13.674C161.713 13.686 161.725 13.698 161.713 13.71C161.701 13.758 161.695 13.818 161.695 13.89C161.695 14.094 161.791 14.196 161.983 14.196C162.103 14.196 162.277 14.154 162.505 14.07C162.985 13.902 163.495 13.818 164.035 13.818C164.743 13.818 165.295 13.944 165.691 14.196C166.099 14.436 166.303 14.802 166.303 15.294C166.303 15.69 166.117 16.056 165.745 16.392C165.373 16.716 164.869 16.956 164.233 17.112Z" fill="white"/>
<rect x="0.5" y="0.5" width="19" height="29" rx="7.5" stroke="white"/>
<circle cx="10" cy="9" r="2" fill="white"/>
</svg>
